<svg width="10" height="11" viewBox="0 0 10 11" fill="none" xmlns="http://www.w3.org/2000/svg">
<path fill-rule="evenodd" clip-rule="evenodd" d="M5.43985 10.392C6.52613 9.80211 9.45728 7.93111 9.45728 4.91614C9.45728 2.47717 7.4801 0.5 5.04114 0.5C2.60217 0.5 0.625 2.47717 0.625 4.91614C0.625 7.93111 3.55614 9.80211 4.64243 10.392C4.89276 10.5279 5.18952 10.5279 5.43985 10.392ZM5.04114 6.80877C6.08641 6.80877 6.93377 5.96141 6.93377 4.91614C6.93377 3.87087 6.08641 3.02351 5.04114 3.02351C3.99587 3.02351 3.14851 3.87087 3.14851 4.91614C3.14851 5.96141 3.99587 6.80877 5.04114 6.80877Z" fill="#858792"/>
</svg>
