<svg width="12" height="11" viewBox="0 0 12 11" fill="none" xmlns="http://www.w3.org/2000/svg">
<path d="M4.8919 2.22137C5.31222 1.13394 5.52238 0.590218 5.86382 0.514861C5.9536 0.495046 6.0464 0.495046 6.13617 0.514861C6.47762 0.590218 6.68778 1.13394 7.1081 2.22137C7.34713 2.83978 7.46664 3.14898 7.69027 3.35929C7.753 3.41827 7.82109 3.47081 7.89359 3.51616C8.15206 3.67783 8.47472 3.70782 9.12005 3.76779C10.2125 3.86932 10.7587 3.92009 10.9255 4.24329C10.96 4.31023 10.9835 4.3827 10.995 4.4577C11.0503 4.81981 10.6487 5.19893 9.84563 5.95718L9.62261 6.16774C9.24715 6.52223 9.05942 6.69948 8.95083 6.92068C8.8857 7.05337 8.84202 7.19627 8.82156 7.34366C8.78744 7.58938 8.84242 7.84651 8.95237 8.36077L8.99165 8.54451C9.18882 9.46676 9.28741 9.92788 9.16434 10.1545C9.0538 10.3581 8.85018 10.4885 8.62525 10.4996C8.37484 10.512 8.022 10.2137 7.31632 9.61693C6.8514 9.22377 6.61893 9.02719 6.36087 8.9504C6.12504 8.88023 5.87496 8.88023 5.63913 8.9504C5.38107 9.02719 5.1486 9.22377 4.68368 9.61693C3.978 10.2137 3.62516 10.512 3.37475 10.4996C3.14982 10.4885 2.9462 10.3581 2.83566 10.1545C2.71259 9.92788 2.81118 9.46676 3.00835 8.54451L3.04763 8.36077C3.15758 7.84651 3.21255 7.58938 3.17844 7.34366C3.15798 7.19627 3.1143 7.05337 3.04917 6.92068C2.94058 6.69948 2.75285 6.52223 2.37739 6.16774L2.15437 5.95718C1.35128 5.19893 0.949734 4.81981 1.00503 4.4577C1.01649 4.3827 1.03997 4.31023 1.07452 4.24329C1.24132 3.92009 1.78753 3.86932 2.87995 3.76779C3.52528 3.70782 3.84794 3.67783 4.10641 3.51616C4.17891 3.47081 4.247 3.41827 4.30973 3.35929C4.53336 3.14898 4.65287 2.83978 4.8919 2.22137Z" fill="#C21C40" stroke="#C21C40"/>
</svg>
